# xmcd
#
# Track frame offsets:
#	182
#	41670
#	68575
#	102635
#	135612
#	171347
#	186312
#
# Disc length: 2857 seconds
#
# Revision: 0
# Processed by: cddbd v1.5PL3 Copyright (c) Steve Scherf et al.
# Submitted via: dBpowerAMP V4.0
#
DISCID=640b2707
DTITLE=Eric Clapton - Class Blues Vol. II
DYEAR=1990
DGENRE=Blues
TTITLE0=Shot The Sheriff
TTITLE1=White Room
TTITLE2=No Alibis
TTITLE3=Tearing Us Apart
TTITLE4=Wonderful Tonight
TTITLE5=Introducing The Band
TTITLE6=Cocaine   
EXTD=
EXTT0=
EXTT1=
EXTT2=
EXTT3=
EXTT4=
EXTT5=
EXTT6=
PLAYORDER=
